<svg width="16" height="16" viewBox="0 0 16 16" fill="none" xmlns="http://www.w3.org/2000/svg">
<path d="M7.29289 13.2929C6.90237 13.6834 6.90237 14.3166 7.29289 14.7071C7.68342 15.0976 8.31658 15.0976 8.70711 14.7071L7.29289 13.2929ZM14 8L14.7071 8.70711C14.8946 8.51957 15 8.26522 15 8C15 7.73478 14.8946 7.48043 14.7071 7.29289L14 8ZM8.70711 1.29289C8.31658 0.902369 7.68342 0.902369 7.29289 1.29289C6.90237 1.68342 6.90237 2.31658 7.29289 2.70711L8.70711 1.29289ZM2 7C1.44772 7 1 7.44771 1 8C1 8.55228 1.44772 9 2 9V7ZM8.70711 14.7071L14.7071 8.70711L13.2929 7.29289L7.29289 13.2929L8.70711 14.7071ZM14.7071 7.29289L8.70711 1.29289L7.29289 2.70711L13.2929 8.70711L14.7071 7.29289ZM14 7H2V9H14V7Z" fill="#E9E9E9"/>
</svg>
